<svg xmlns="http://www.w3.org/2000/svg" viewBox="0 0 500 500"><g id="freepik--background-simple--inject-87"><g><path d="M475.79049,277.045c-13.4942,40.8997-42.5647,85.7247-85.3463,100.3166-64.6408,22.0541-70.4161,75.0695-187.7361,74.7071-18.2919-.0547-35.2709-1.9703-50.93609-5.47-8.4212-1.8804-16.4651-4.2304-24.1196-7.001-69.4987-25.0702-107.5515-84.6908-112.9813-148.4013-7.1556-83.7932,49.8686-126.0684,87.0288-150.9678,37.1604-24.8992,79.5306-117.4516,194.8666-118.0017,17.58451-.0763,35.199,1.6466,52.3554,5.5932,39.1626,8.9913,79.4585,30.6698,103.66411,63.7025,1.81719,2.4817,3.55739,5.0259,5.23049,7.6221,32.64751,50.7983,36.3742,122.1418,17.974,177.9003Z" style="fill:#BCA560;"></path><path d="M475.79049,277.045c-13.4942,40.8997-42.5647,85.7247-85.3463,100.3166-64.6408,22.0541-70.4161,75.0695-187.7361,74.7071-18.2919-.0547-35.2709-1.9703-50.93609-5.47-8.4212-1.8804-16.4651-4.2304-24.1196-7.001-69.4987-25.0702-107.5515-84.6908-112.9813-148.4013-7.1556-83.7932,49.8686-126.0684,87.0288-150.9678,37.1604-24.8992,79.5306-117.4516,194.8666-118.0017,17.58451-.0763,35.199,1.6466,52.3554,5.5932,39.1626,8.9913,79.4585,30.6698,103.66411,63.7025,1.81719,2.4817,3.55739,5.0259,5.23049,7.6221,32.64751,50.7983,36.3742,122.1418,17.974,177.9003Z" style="fill:#fff; opacity:.7;"></path></g></g><g id="freepik--Floor--inject-87"><g><line x1="468.74829" y1="457.9611" x2="483.70469" y2="457.9611" style="fill:none; stroke:#263238; stroke-linecap:round; stroke-linejoin:round;"></line><line x1="15.9045" y1="457.9611" x2="459.86409" y2="457.9611" style="fill:none; stroke:#263238; stroke-linecap:round; stroke-linejoin:round;"></line></g></g><g id="freepik--Locators--inject-87"><path d="M55.2317,80.1504c-15.1658,0-27.4601,12.2943-27.4601,27.4601s27.4601,42.8216,27.4601,42.8216c0,0,27.4601-27.6559,27.4601-42.8216s-12.2943-27.4601-27.4601-27.4601Zm0,37.1932c-5.3754,0-9.7331-4.3576-9.7331-9.7331s4.3577-9.7332,9.7331-9.7332,9.7331,4.3577,9.7331,9.7332-4.3576,9.7331-9.7331,9.7331Z" style="fill:none; opacity:.3; stroke:#000; stroke-linecap:round; stroke-linejoin:round;"></path><path d="M427.68,371.5158c-9.69741,0-17.55871,7.8613-17.55871,17.5587s17.55871,27.3813,17.55871,27.3813c0,0,17.55869-17.6839,17.55869-27.3813s-7.8613-17.5587-17.55869-17.5587Zm0,23.7823c-3.43721,0-6.22361-2.7864-6.22361-6.2236s2.7864-6.2236,6.22361-6.2236,6.22359,2.7864,6.22359,6.2236-2.7864,6.2236-6.22359,6.2236Z" style="fill:none; opacity:.3; stroke:#000; stroke-linecap:round; stroke-linejoin:round;"></path><path d="M448.82039,47.5132c-9.69739,0-17.5587,7.8613-17.5587,17.5586s17.5587,27.3813,17.5587,27.3813c0,0,17.55861-17.6839,17.55861-27.3813s-7.86121-17.5586-17.55861-17.5586Zm0,23.7823c-3.4372,0-6.2236-2.7864-6.2236-6.2237s2.7864-6.2236,6.2236-6.2236,6.22361,2.7864,6.22361,6.2236-2.78641,6.2237-6.22361,6.2237Z" style="fill:none; opacity:.3; stroke:#000; stroke-linecap:round; stroke-linejoin:round;"></path></g><g id="freepik--Plants--inject-87"><g><g style="opacity:.2;"><path d="M443.60349,302.7217c-3.5268-1.9223-8.8858-9.1585-8.89-9.1639-.0554-.075,5.84251-2.0845,6.229-2.1687,4.4751-.9732,13.6951-.2212,16.2687,4.2152,1.8534,3.1959,.207,7.0514-3.0231,8.5121-3.2997,1.4919-7.5803,.2417-10.5846-1.3947Z"></path><path d="M421.09769,316.2544c-2.7804-2.6751-5.8656-10.4507-6.1085-11.0708-4.33119,1.7554-8.91719,3.2054-13.6393,4.417-2.6988,.6959-5.4392,1.3124-8.194,1.8963,1.29711-.0794,2.4578-.1405,2.6214-.1321,4.574,.2444,13.2673,3.4043,14.577,8.3622,.9453,3.5732-1.6614,6.8554-5.1628,7.4116-3.5752,.5683-7.3758-1.7687-9.84-4.1403-2.502-2.4065-5.2647-8.9828-5.9733-10.7335-1.0594,.213-2.1143,.4374-3.1745,.6457-5.0862,1.0025-10.1656,1.9803-15.1186,3.0924-1.7458,.3908-3.4505,.8405-5.1584,1.2835,1.1528-.0693,2.1238-.118,2.27331-.1102,4.573,.2443,13.26679,3.4036,14.57719,8.3623,.9444,3.5726-1.662,6.8561-5.1629,7.4117-3.5766,.5668-7.3758-1.7687-9.84029-4.1412-2.38761-2.2962-4.99241-8.3436-5.84381-10.4189-1.735,.5065-3.4734,1.011-5.1315,1.5801-1.12369,.4143-2.2343,.7342-3.3388,1.2142-1.1044,.4509-2.1975,.898-3.28,1.34-2.0533,.9279-4.1782,1.8731-6.1584,2.829-1.3828,.6546-2.688,1.3037-4.005,1.9537,1.7331-.4095,5.1431-1.1397,5.4354-1.1685,4.5566-.4526,13.62811,1.3544,15.6757,6.0575,1.474,3.3882-.6043,7.0284-3.98159,8.1072-3.44811,1.1027-7.55711-.6304-10.35331-2.6013-3.07769-2.1708-7.172-9.0872-7.6781-9.9546-2.1751,1.083-4.2807,2.1575-6.2514,3.203-4.356,2.2983-8.18619,4.4539-11.3938,6.3227l-2.06139-2.6562c3.36709-1.8712,7.42039-4.0465,12.06509-6.3684,2.2042-1.109,4.5818-2.25,7.0347-3.3984-.1794-.6197-1.1777-4.1499-1.695-7.5633-3.8547-.3305-10.6073-3.6048-11.4754-4.0336-1.2178,2.1034-2.3805,4.1615-3.447,6.1204-2.2417,4.0938-4.1578,7.817-5.7528,11.0292l-2.2287-2.8719c1.5294-2.8844,3.3042-6.1274,5.3304-9.6443,1.2269-2.1412,2.58071-4.405,3.9925-6.7155-.75079-.6383-6.85679-5.8919-8.4566-9.3073-1.4494-3.098-2.4359-7.4479-.746-10.6509,1.6542-3.1349,5.6034-4.5424,8.6811-2.4961,4.2708,2.8388,4.4585,12.0871,3.2138,16.495-.0729,.2603-1.1845,2.9923-1.9144,4.7041,.5817-.941,1.1367-1.8613,1.7479-2.8226,1.194-1.9105,2.4435-3.7805,3.7802-5.7975,.67921-.9515,1.3661-1.9128,2.0586-2.8837,.6678-.9771,1.4963-1.9246,2.2468-2.8998,1.7879-2.2252,3.70781-4.3915,5.6903-6.5316-1.6691-1.0509-7.5449-4.8669-9.456-7.7231-1.9026-2.843-3.53649-6.9924-2.35049-10.4136,1.16009-3.3498,4.85059-5.3398,8.202-3.7845,4.65189,2.1604,6.23839,11.2739,5.67619,15.8192-.0344,.2831-.8049,3.4993-1.2619,5.2575,1.202-1.2771,2.3951-2.5576,3.6529-3.8101,3.6301-3.6168,7.4182-7.1639,11.1802-10.7201,1.1537-1.0887,2.2893-2.1874,3.43061-3.2826-.59861-.3675-7.67971-4.7521-9.82081-7.9513-1.90319-2.8419-3.5369-6.9928-2.3507-10.4138,1.1603-3.3495,4.8507-5.3397,8.2018-3.7833,4.6519,2.1597,6.2382,11.2725,5.6762,15.8177-.0424,.3421-1.1569,4.9685-1.4981,6.1312,2.5128-2.4137,4.9944-4.8412,7.3433-7.3349,3.2461-3.4349,6.2408-6.9858,8.8881-10.6396-.27879-.1702-7.6903-4.714-9.8833-7.9894-1.903-2.8434-3.5367-6.9939-2.3509-10.4146,1.1603-3.3496,4.8501-5.3395,8.2021-3.7833,4.6525,2.16,6.2379,11.2724,5.67631,15.8181-.04451,.3563-1.24611,5.3331-1.52831,6.2197,.1564-.2178,.34331-.4261,.497-.645,2.7767-3.9368,4.9715-8.0994,6.8362-12.0971,1.0878-2.3208,1.9977-4.6004,2.8338-6.8374-1.4679-.705-8.1372-3.9993-10.4364-6.7292-2.2036-2.6168-4.2837-6.5626-3.4805-10.0925,.7855-3.4574,4.2347-5.8404,7.7366-4.6622,4.8614,1.6365,7.43861,10.5197,7.3793,15.0991-.0034,.2488-.31669,2.7768-.5711,4.6146,.3623-1.0155,.7546-2.0563,1.0813-3.036,1.2376-3.6761,2.1438-7.1185,2.92211-10.174,.428-1.7406,.78159-3.3228,1.09569-4.8077-1.0789-1.4416-5.3542-7.3105-6.1232-10.7303-.7486-3.3371-.77749-7.798,1.5619-10.5615,2.2914-2.7055,6.45061-3.2315,9.0147-.5718,3.5608,3.6914,1.7551,12.7635-.40809,16.8009-.18761,.3486-3.73791,5.4692-3.79481,5.3946l-.0657-.087c-.2733,1.435-.5842,2.969-.957,4.6391-.713,3.0787-1.54649,6.5496-2.7093,10.2664-1.1516,3.7182-2.5075,7.7247-4.3161,11.8159-1.80809,4.1038-3.92,8.3276-6.6582,12.3985-.0302,.0462-.0691,.0901-.09989,.1362,1.17069-.942,4.53209-3.4668,4.81209-3.6306,3.9491-2.3194,12.9431-4.4811,16.7726-1.0678,2.7576,2.4589,2.3957,6.6348-.2182,9.0305-2.6702,2.4454-7.1271,2.5929-10.492,1.9743-3.7942-.6973-10.6569-5.4806-11.2023-5.8626-2.6429,3.8531-5.6689,7.5918-8.9381,11.2076-1.868,2.0693-3.8132,4.095-5.7895,6.1018,1.0386-.7822,1.9729-1.4739,2.1142-1.5558,3.9497-2.3196,12.9424-4.4806,16.7717-1.0676,2.7587,2.4588,2.396,6.6354-.2181,9.0298-2.66939,2.4464-7.1268,2.5935-10.491,1.9753-3.414-.628-9.3473-4.5882-10.9029-5.6569-.7661,.7615-1.5231,1.5313-2.2921,2.2899-3.6891,3.6418-7.3868,7.2593-10.9041,10.9194-1.241,1.2891-2.4146,2.6042-3.5934,3.9155,.9223-.6929,1.7059-1.2691,1.8339-1.3448,3.9498-2.3195,12.943-4.4805,16.7717-1.0683,2.7584,2.4598,2.3967,6.6357-.2179,9.0315-2.6684,2.4453-7.1272,2.5927-10.49159,1.9739-3.25711-.5979-8.76691-4.205-10.62181-5.4668-1.1673,1.3792-2.3387,2.7593-3.4083,4.1492-.7083,.9659-1.4568,1.8457-2.1148,2.8549-.6715,.9845-1.3378,1.9605-1.9968,2.9263-1.2001,1.9077-2.4511,3.8675-3.576,5.7569-.7921,1.3089-1.52229,2.5708-2.262,3.8385,1.21971-1.2972,3.6605-3.7875,3.888-3.9722,2.3605-1.9205,6.9299-4.0996,10.9953-4.5322,.3469-.286,.71641-.5402,1.1116-.7567,3.1103-1.7016,7.1803-.6976,8.6185,2.7066,1.9961,4.7242-2.94969,12.5416-6.419,15.5306-.2046,.1764-2.6389,1.8421-4.1923,2.8678,1.0052-.4636,1.9749-.9259,3.0148-1.3904,2.0503-.9332,4.1242-1.8039,6.3517-2.7506,1.0917-.419,2.1945-.8411,3.3088-1.2684,1.0947-.447,2.3086-.7799,3.4727-1.1793,2.7181-.8684,5.5157-1.6172,8.34961-2.3083-.81321-1.7981-3.608-8.222-3.62641-11.6583-.0193-3.4206,.90841-7.7836,3.7837-9.9825,2.8165-2.1535,6.991-1.7789,8.9285,1.3685,2.6888,4.3676-1.0153,12.844-3.9913,16.3253-.1858,.2171-2.6022,2.4746-3.9537,3.6892,1.707-.4021,3.409-.812,5.1491-1.1628,5.0234-1.0142,10.13911-1.8841,15.239-2.7737,1.5626-.2715,3.1155-.5612,4.6718-.8448-.2959-.6374-3.7832-8.2014-3.80469-12.0501-.01891-3.4205,.908-7.7834,3.78419-9.9832,2.816-2.1529,6.9914-1.7777,8.9277,1.3694,2.6889,4.3681-1.0148,12.8435-3.9912,16.3248-.2244,.2623-3.7059,3.5056-4.6314,4.2871,3.4264-.6265,6.8361-1.283,10.171-2.0663,4.6025-1.075,9.0589-2.3836,13.2824-3.9709-.13869-.297-3.8134-8.175-3.8353-12.117-.0192-3.4208,.9075-7.7833,3.7843-9.9825,2.8156-2.1536,6.9905-1.7781,8.9278,1.3691,2.689,4.3674-1.01549,12.8435-3.9918,16.3242-.2339,.2738-3.98169,3.7613-4.7056,4.3444,.2508-.0945,.5212-.1648,.7703-.2621,4.4878-1.7534,8.615-4.0136,12.3757-6.3197,2.1872-1.3353,4.2032-2.7346,6.1345-4.1395-.8348-1.3974-4.5805-7.825-4.9919-11.37-.3941-3.3986,.0475-7.8365,2.6646-10.3382,2.56271-2.4494,6.7544-2.5348,9.0246,.3797,3.1526,4.046,.401,12.8779-2.1746,16.6644-.14,.2065-1.79529,2.1423-3.0219,3.5348,.862-.6475,1.7641-1.2996,2.5772-1.9364,3.0592-2.3835,5.7151-4.7543,8.04941-6.8733,1.318-1.2158,2.48519-2.3414,3.56549-3.4061-.1031-1.7981-.432-9.0511,.8134-12.3274,1.2162-3.1978,3.65311-6.9323,7.129-7.9467,3.4034-.9936,7.16211,.8627,7.8344,4.4951,.9329,5.0438-5.5784,11.614-9.6091,13.7888-.3487,.1867-6.1344,2.4988-6.1417,2.4056,0,0-.005-.0879-.0057-.1083-1.0196,1.0451-2.12579,2.1537-3.35779,3.3404-2.29281,2.1745-4.90311,4.6102-7.92351,7.069-3.01149,2.4651-6.3531,5.0594-10.1192,7.4739-3.7715,2.4245-7.8626,4.7836-12.3925,6.6679-.0513,.0211-.1076,.0368-.15879,.0576,1.49649-.1397,5.69259-.3897,6.01729-.3724,4.5733,.2434,13.267,3.403,14.578,8.3613,.9435,3.5727-1.6625,6.8564-5.164,7.4119-3.5765,.567-7.375-1.7693-9.8396-4.1403Z"></path><path d="M386.21139,231.9981c-.0878-.032,3.7231-4.9618,3.99861-5.2451,3.19679-3.2797,11.30129-7.7388,15.89569-5.458,3.3094,1.6425,4.0625,5.7666,2.1731,8.7667-1.9285,3.0639-6.18879,4.3836-9.597,4.6753-4.0019,.3432-12.4633-2.7368-12.4704-2.7389Z"></path></g><g style="opacity:.2;"><path d="M33.7448,302.7217c3.5268-1.9223,8.8858-9.1585,8.89-9.1639,.0554-.075-5.8425-2.0845-6.229-2.1687-4.4751-.9732-13.6951-.2212-16.2687,4.2152-1.8534,3.1959-.207,7.0514,3.0231,8.5121,3.2997,1.4919,7.5803,.2417,10.5846-1.3947Z"></path><path d="M56.2506,316.2544c2.7804-2.6751,5.8656-10.4507,6.1085-11.0708,4.3312,1.7554,8.9172,3.2054,13.6393,4.417,2.6988,.6959,5.4392,1.3124,8.194,1.8963-1.2971-.0794-2.4578-.1405-2.6214-.1321-4.574,.2444-13.2673,3.4043-14.577,8.3622-.9453,3.5732,1.6614,6.8554,5.1628,7.4116,3.5752,.5683,7.3758-1.7687,9.84-4.1403,2.502-2.4065,5.2647-8.9828,5.9733-10.7335,1.0594,.213,2.1143,.4374,3.1745,.6457,5.0862,1.0025,10.1656,1.9803,15.1186,3.0924,1.7458,.3908,3.4505,.8405,5.1584,1.2835-1.1528-.0693-2.1238-.118-2.2733-.1102-4.573,.2443-13.2668,3.4036-14.5772,8.3623-.9444,3.5726,1.662,6.8561,5.1629,7.4117,3.5766,.5668,7.3758-1.7687,9.8403-4.1412,2.3876-2.2962,4.9924-8.3436,5.8438-10.4189,1.735,.5065,3.4734,1.011,5.1315,1.5801,1.1237,.4143,2.2343,.7342,3.3388,1.2142,1.1044,.4509,2.1975,.898,3.28,1.34,2.0533,.9279,4.1782,1.8731,6.1584,2.829,1.3828,.6546,2.688,1.3037,4.005,1.9537-1.7331-.4095-5.1431-1.1397-5.4354-1.1685-4.5566-.4526-13.6281,1.3544-15.6757,6.0575-1.474,3.3882,.6043,7.0284,3.9816,8.1072,3.4481,1.1027,7.5571-.6304,10.3533-2.6013,3.0777-2.1708,7.172-9.0872,7.6781-9.9546,2.1751,1.083,4.2807,2.1575,6.2514,3.203,4.356,2.2983,8.1862,4.4539,11.3938,6.3227l2.0614-2.6562c-3.3671-1.8712-7.4204-4.0465-12.0651-6.3684-2.2042-1.109-4.5818-2.25-7.0347-3.3984,.1794-.6197,1.1777-4.1499,1.695-7.5633,3.8547-.3305,10.6073-3.6048,11.4754-4.0336,1.2178,2.1034,2.3805,4.1615,3.447,6.1204,2.2417,4.0938,4.1578,7.817,5.7528,11.0292l2.2287-2.8719c-1.5294-2.8844-3.3042-6.1274-5.3304-9.6443-1.2269-2.1412-2.5807-4.405-3.9925-6.7155,.7508-.6383,6.8568-5.8919,8.4566-9.3073,1.4494-3.098,2.4359-7.4479,.746-10.6509-1.6542-3.1349-5.6034-4.5424-8.6811-2.4961-4.2708,2.8388-4.4585,12.0871-3.2138,16.495,.0729,.2603,1.1845,2.9923,1.9144,4.7041-.5817-.941-1.1367-1.8613-1.7479-2.8226-1.194-1.9105-2.4435-3.7805-3.7802-5.7975-.6792-.9515-1.3661-1.9128-2.0586-2.8837-.6678-.9771-1.4963-1.9246-2.2468-2.8998-1.7879-2.2252-3.7078-4.3915-5.6903-6.5316,1.6691-1.0509,7.5449-4.8669,9.456-7.7231,1.9026-2.843,3.5365-6.9924,2.3505-10.4136-1.1601-3.3498-4.8506-5.3398-8.202-3.7845-4.6519,2.1604-6.2384,11.2739-5.6762,15.8192,.0344,.2831,.8049,3.4993,1.2619,5.2575-1.202-1.2771-2.3951-2.5576-3.6529-3.8101-3.6301-3.6168-7.4182-7.1639-11.1802-10.7201-1.1537-1.0887-2.2893-2.1874-3.4306-3.2826,.5986-.3675,7.6797-4.7521,9.8208-7.9513,1.9032-2.8419,3.5369-6.9928,2.3507-10.4138-1.1603-3.3495-4.8507-5.3397-8.2018-3.7833-4.6519,2.1597-6.2382,11.2725-5.6762,15.8177,.0424,.3421,1.1569,4.9685,1.4981,6.1312-2.5128-2.4137-4.9944-4.8412-7.3433-7.3349-3.2461-3.4349-6.2408-6.9858-8.8881-10.6396,.2788-.1702,7.6903-4.714,9.8833-7.9894,1.903-2.8434,3.5367-6.9939,2.3509-10.4146-1.1603-3.3496-4.8501-5.3395-8.2021-3.7833-4.6525,2.16-6.2379,11.2724-5.6763,15.8181,.0445,.3563,1.2461,5.3331,1.5283,6.2197-.1564-.2178-.3433-.4261-.497-.645-2.7767-3.9368-4.9715-8.0994-6.8362-12.0971-1.0878-2.3208-1.9977-4.6004-2.8338-6.8374,1.4679-.705,8.1372-3.9993,10.4364-6.7292,2.2036-2.6168,4.2837-6.5626,3.4805-10.0925-.7855-3.4574-4.2347-5.8404-7.7366-4.6622-4.8614,1.6365-7.4386,10.5197-7.3793,15.0991,.0034,.2488,.3167,2.7768,.5711,4.6146-.3623-1.0155-.7546-2.0563-1.0813-3.036-1.2376-3.6761-2.1438-7.1185-2.9221-10.174-.428-1.7406-.7816-3.3228-1.0957-4.8077,1.0789-1.4416,5.3542-7.3105,6.1232-10.7303,.7486-3.3371,.7775-7.798-1.5619-10.5615-2.2914-2.7055-6.4506-3.2315-9.0147-.5718-3.5608,3.6914-1.7551,12.7635,.4081,16.8009,.1876,.3486,3.7379,5.4692,3.7948,5.3946l.0657-.087c.2733,1.435,.5842,2.969,.957,4.6391,.713,3.0787,1.5465,6.5496,2.7093,10.2664,1.1516,3.7182,2.5075,7.7247,4.3161,11.8159,1.8081,4.1038,3.92,8.3276,6.6582,12.3985,.0302,.0462,.0691,.0901,.0999,.1362-1.1707-.942-4.5321-3.4668-4.8121-3.6306-3.9491-2.3194-12.9431-4.4811-16.7726-1.0678-2.7576,2.4589-2.3957,6.6348,.2182,9.0305,2.6702,2.4454,7.1271,2.5929,10.492,1.9743,3.7942-.6973,10.6569-5.4806,11.2023-5.8626,2.6429,3.8531,5.6689,7.5918,8.9381,11.2076,1.868,2.0693,3.8132,4.095,5.7895,6.1018-1.0386-.7822-1.9729-1.4739-2.1142-1.5558-3.9497-2.3196-12.9424-4.4806-16.7717-1.0676-2.7587,2.4588-2.396,6.6354,.2181,9.0298,2.6694,2.4464,7.1268,2.5935,10.491,1.9753,3.414-.628,9.3473-4.5882,10.9029-5.6569,.7661,.7615,1.5231,1.5313,2.2921,2.2899,3.6891,3.6418,7.3868,7.2593,10.9041,10.9194,1.241,1.2891,2.4146,2.6042,3.5934,3.9155-.9223-.6929-1.7059-1.2691-1.8339-1.3448-3.9498-2.3195-12.943-4.4805-16.7717-1.0683-2.7584,2.4598-2.3967,6.6357,.2179,9.0315,2.6684,2.4453,7.1272,2.5927,10.4916,1.9739,3.2571-.5979,8.7669-4.205,10.6218-5.4668,1.1673,1.3792,2.3387,2.7593,3.4083,4.1492,.7083,.9659,1.4568,1.8457,2.1148,2.8549,.6715,.9845,1.3378,1.9605,1.9968,2.9263,1.2001,1.9077,2.4511,3.8675,3.576,5.7569,.7921,1.3089,1.5223,2.5708,2.262,3.8385-1.2197-1.2972-3.6605-3.7875-3.888-3.9722-2.3605-1.9205-6.9299-4.0996-10.9953-4.5322-.3469-.286-.7164-.5402-1.1116-.7567-3.1103-1.7016-7.1803-.6976-8.6185,2.7066-1.9961,4.7242,2.9497,12.5416,6.419,15.5306,.2046,.1764,2.6389,1.8421,4.1923,2.8678-1.0052-.4636-1.9749-.9259-3.0148-1.3904-2.0503-.9332-4.1242-1.8039-6.3517-2.7506-1.0917-.419-2.1945-.8411-3.3088-1.2684-1.0947-.447-2.3086-.7799-3.4727-1.1793-2.7181-.8684-5.5157-1.6172-8.3496-2.3083,.8132-1.7981,3.608-8.222,3.6264-11.6583,.0193-3.4206-.9084-7.7836-3.7837-9.9825-2.8165-2.1535-6.991-1.7789-8.9285,1.3685-2.6888,4.3676,1.0153,12.844,3.9913,16.3253,.1858,.2171,2.6022,2.4746,3.9537,3.6892-1.707-.4021-3.409-.812-5.1491-1.1628-5.0234-1.0142-10.1391-1.8841-15.239-2.7737-1.5626-.2715-3.1155-.5612-4.6718-.8448,.2959-.6374,3.7832-8.2014,3.8047-12.0501,.0189-3.4205-.908-7.7834-3.7842-9.9832-2.816-2.1529-6.9914-1.7777-8.9277,1.3694-2.6889,4.3681,1.0148,12.8435,3.9912,16.3248,.2244,.2623,3.7059,3.5056,4.6314,4.2871-3.4264-.6265-6.8361-1.283-10.171-2.0663-4.6025-1.075-9.0589-2.3836-13.2824-3.9709,.1387-.297,3.8134-8.175,3.8353-12.117,.0192-3.4208-.9075-7.7833-3.7843-9.9825-2.8156-2.1536-6.9905-1.7781-8.9278,1.3691-2.689,4.3674,1.0155,12.8435,3.9918,16.3242,.2339,.2738,3.9817,3.7613,4.7056,4.3444-.2508-.0945-.5212-.1648-.7703-.2621-4.4878-1.7534-8.615-4.0136-12.3757-6.3197-2.1872-1.3353-4.2032-2.7346-6.1345-4.1395,.8348-1.3974,4.5805-7.825,4.9919-11.37,.3941-3.3986-.0475-7.8365-2.6646-10.3382-2.5627-2.4494-6.7544-2.5348-9.0246,.3797-3.1526,4.046-.401,12.8779,2.1746,16.6644,.14,.2065,1.7953,2.1423,3.0219,3.5348-.862-.6475-1.7641-1.2996-2.5772-1.9364-3.0592-2.3835-5.7151-4.7543-8.0494-6.8733-1.318-1.2158-2.4852-2.3414-3.5655-3.4061,.1031-1.7981,.432-9.0511-.8134-12.3274-1.2162-3.1978-3.6531-6.9323-7.129-7.9467-3.4034-.9936-7.1621,.8627-7.8344,4.4951-.9329,5.0438,5.5784,11.614,9.6091,13.7888,.3487,.1867,6.1344,2.4988,6.1417,2.4056,0,0,.005-.0879,.0057-.1083,1.0196,1.0451,2.1258,2.1537,3.3578,3.3404,2.2928,2.1745,4.9031,4.6102,7.9235,7.069,3.0115,2.4651,6.3531,5.0594,10.1192,7.4739,3.7715,2.4245,7.8626,4.7836,12.3925,6.6679,.0513,.0211,.1076,.0368,.1588,.0576-1.4965-.1397-5.6926-.3897-6.0173-.3724-4.5733,.2434-13.267,3.403-14.578,8.3613-.9435,3.5727,1.6625,6.8564,5.164,7.4119,3.5765,.567,7.375-1.7693,9.8396-4.1403Z"></path><path d="M91.1369,231.9981c.0878-.032-3.7231-4.9618-3.9986-5.2451-3.1968-3.2797-11.3013-7.7388-15.8957-5.458-3.3094,1.6425-4.0625,5.7666-2.1731,8.7667,1.9285,3.0639,6.1888,4.3836,9.597,4.6753,4.0019,.3432,12.4633-2.7368,12.4704-2.7389Z"></path></g></g></g><g id="freepik--Device--inject-87"><g><rect x="93.1608" y="46.0529" width="280.71599" height="371.5954" rx="10.2109" ry="10.2109" style="fill:#263238;"></rect><rect x="110.7882" y="69.387" width="245.46119" height="324.9273" style="fill:#fff; stroke:#263238; stroke-linecap:round; stroke-linejoin:round;"></rect><g><rect x="119.7667" y="270.7333" width="228.5993" height="10.5315" style="fill:#c2c2c2;"></rect><line x1="119.7667" y1="281.2648" x2="347.45279" y2="281.2648" style="fill:none; stroke:#263238; stroke-linecap:round; stroke-linejoin:round;"></line><line x1="120.2703" y1="270.6481" x2="347.87349" y2="270.6481" style="fill:none; stroke:#263238; stroke-linecap:round; stroke-linejoin:round;"></line><line x1="347.87349" y1="253.6903" x2="120.2703" y2="253.6903" style="fill:none; stroke:#263238; stroke-linecap:round; stroke-linejoin:round;"></line><line x1="347.87349" y1="297.0364" x2="120.2703" y2="297.0364" style="fill:none; stroke:#263238; stroke-linecap:round; stroke-linejoin:round;"></line><line x1="347.87349" y1="317.3526" x2="120.2703" y2="317.3526" style="fill:none; stroke:#263238; stroke-linecap:round; stroke-linejoin:round;"></line><rect x="119.7667" y="175.5943" width="228.5993" height="10.5315" style="fill:#c2c2c2;"></rect><rect x="119.7667" y="116.9315" width="228.5993" height="10.5315" style="fill:#c2c2c2;"></rect><rect x="119.7667" y="116.9315" width="228.30169" height="222.4176" style="fill:none; stroke:#263238; stroke-linecap:round; stroke-linejoin:round;"></rect><line x1="119.7667" y1="127.463" x2="347.45279" y2="127.463" style="fill:none; stroke:#263238; stroke-linecap:round; stroke-linejoin:round;"></line><line x1="119.7667" y1="186.1258" x2="347.45279" y2="186.1258" style="fill:none; stroke:#263238; stroke-linecap:round; stroke-linejoin:round;"></line><line x1="120.2703" y1="145.2671" x2="347.87349" y2="145.2671" style="fill:none; stroke:#263238; stroke-linecap:round; stroke-linejoin:round;"></line><line x1="229.23369" y1="144.8464" x2="229.23369" y2="127.9001" style="fill:none; stroke:#263238; stroke-linecap:round; stroke-linejoin:round;"></line><line x1="120.2703" y1="161.5532" x2="347.87349" y2="161.5532" style="fill:none; stroke:#263238; stroke-linecap:round; stroke-linejoin:round;"></line><line x1="120.2703" y1="175.5091" x2="347.87349" y2="175.5091" style="fill:none; stroke:#263238; stroke-linecap:round; stroke-linejoin:round;"></line><g><line x1="183.8407" y1="161.1325" x2="183.8407" y2="145.5714" style="fill:none; stroke:#263238; stroke-linecap:round; stroke-linejoin:round;"></line><line x1="195.9686" y1="161.1325" x2="195.9686" y2="145.5714" style="fill:none; stroke:#263238; stroke-linecap:round; stroke-linejoin:round;"></line><line x1="208.09649" y1="161.1325" x2="208.09649" y2="145.5714" style="fill:none; stroke:#263238; stroke-linecap:round; stroke-linejoin:round;"></line><line x1="327.98949" y1="161.1325" x2="327.98949" y2="145.5714" style="fill:none; stroke:#263238; stroke-linecap:round; stroke-linejoin:round;"></line></g><line x1="293.62649" y1="144.8464" x2="293.62649" y2="127.9001" style="fill:none; stroke:#263238; stroke-linecap:round; stroke-linejoin:round;"></line><line x1="347.87349" y1="203.6543" x2="120.2703" y2="203.6543" style="fill:none; stroke:#263238; stroke-linecap:round; stroke-linejoin:round;"></line><line x1="238.91" y1="203.2336" x2="238.91" y2="186.2873" style="fill:none; stroke:#263238; stroke-linecap:round; stroke-linejoin:round;"></line><line x1="257.24409" y1="270.1282" x2="257.24409" y2="253.1819" style="fill:none; stroke:#263238; stroke-linecap:round; stroke-linejoin:round;"></line><line x1="347.87349" y1="219.9404" x2="120.2703" y2="219.9404" style="fill:none; stroke:#263238; stroke-linecap:round; stroke-linejoin:round;"></line><line x1="347.87349" y1="236.8153" x2="120.2703" y2="236.8153" style="fill:none; stroke:#263238; stroke-linecap:round; stroke-linejoin:round;"></line><g><line x1="284.30309" y1="219.5197" x2="284.30309" y2="203.9586" style="fill:none; stroke:#263238; stroke-linecap:round; stroke-linejoin:round;"></line><line x1="272.17509" y1="219.5197" x2="272.17509" y2="203.9586" style="fill:none; stroke:#263238; stroke-linecap:round; stroke-linejoin:round;"></line><line x1="260.04719" y1="219.5197" x2="260.04719" y2="203.9586" style="fill:none; stroke:#263238; stroke-linecap:round; stroke-linejoin:round;"></line><line x1="140.1542" y1="219.5197" x2="140.1542" y2="203.9586" style="fill:none; stroke:#263238; stroke-linecap:round; stroke-linejoin:round;"></line></g><g><line x1="237.13849" y1="253.5865" x2="237.13849" y2="236.4658" style="fill:none; stroke:#263238; stroke-linecap:round; stroke-linejoin:round;"></line><line x1="225.01059" y1="253.5865" x2="225.01059" y2="236.4658" style="fill:none; stroke:#263238; stroke-linecap:round; stroke-linejoin:round;"></line><line x1="212.88269" y1="253.5865" x2="212.88269" y2="236.4658" style="fill:none; stroke:#263238; stroke-linecap:round; stroke-linejoin:round;"></line><line x1="134.323" y1="253.5865" x2="134.323" y2="236.4658" style="fill:none; stroke:#263238; stroke-linecap:round; stroke-linejoin:round;"></line></g><line x1="174.5173" y1="203.2336" x2="174.5173" y2="186.2873" style="fill:none; stroke:#263238; stroke-linecap:round; stroke-linejoin:round;"></line></g><rect x="110.7882" y="69.387" width="245.46119" height="36.0197" style="fill:#BCA560; stroke:#263238; stroke-linecap:round; stroke-linejoin:round;"></rect><g><polygon points="93.1608 103.0188 93.1608 206.9841 254.092 46.0529 150.1267 46.0529 93.1608 103.0188" style="fill:#fff; opacity:.2;"></polygon><path d="M373.87679,58.3814v-3.2578c0-5.0096-4.0611-9.0707-9.0707-9.0707h-5.1208L93.1608,312.5775v26.52L373.87679,58.3814Z" style="fill:#fff; opacity:.2;"></path><polygon points="373.87679 398.6201 373.87679 294.6548 250.88329 417.6483 354.84849 417.6483 373.87679 398.6201" style="fill:#fff; opacity:.2;"></polygon></g></g><g><path d="M163.5909,92.6797v-12.9927h-2.3637v-2.3257h7.8295v2.3257h-2.3261v12.9927h-3.1397Z" style="fill:#263238;"></path><path d="M170.4371,92.6797v-15.3184h3.9712c1.0337,0,1.9194,.1167,2.6572,.3496,.7378,.2334,1.3047,.6465,1.7022,1.2388,.397,.5928,.5957,1.4121,.5957,2.4585,0,.6309-.0537,1.1885-.1607,1.6738-.1074,.4854-.2963,.9077-.5673,1.2671-.2715,.3594-.6529,.646-1.1446,.8604l2.1182,7.4702h-3.1958l-1.7588-6.9404h-1.0972v6.9404h-3.1201Zm3.1201-8.794h.9077c.5044,0,.9014-.082,1.1919-.2461,.2896-.1635,.4947-.4125,.6143-.747,.1196-.3335,.1797-.7466,.1797-1.2383,0-.7061-.1294-1.2451-.3877-1.6172-.2583-.3716-.7407-.5581-1.4468-.5581h-1.0591v4.4067Z" style="fill:#263238;"></path><path d="M180.7057,92.6797l2.9692-15.3184h3.4609l2.9502,15.3184h-2.8935l-.5484-3.3662h-2.4209l-.5859,3.3662h-2.9316Zm3.8012-5.2764h1.8345l-.9267-6.1841-.9078,6.1841Z" style="fill:#263238;"></path><path d="M193.2442,92.6797l-2.9126-15.3184h2.7046l1.8155,10.5904,1.7021-10.5904h2.8179l-2.9126,15.3184h-3.2149Z" style="fill:#263238;"></path><path d="M200.94149,92.6797v-15.3184h6.6758v2.1558h-3.5557v4.0659h2.7422v2.1748h-2.7422v4.8037h3.5933v2.1182h-6.7134Z" style="fill:#263238;"></path><path d="M209.22469,92.6797v-15.3184h3.1201v13.2002h3.5933v2.1182h-6.7134Z" style="fill:#263238;"></path><path d="M222.066,92.6797v-15.3184h3.10159v15.3184h-3.10159Z" style="fill:#263238;"></path><path d="M227.51129,92.6797v-15.3184h2.1748l3.4043,7.9805v-7.9805h2.5723v15.3184h-2.0801l-3.4043-8.4727v8.4727h-2.667Z" style="fill:#263238;"></path><path d="M241.96059,92.8877c-.9454,0-1.7334-.1733-2.3643-.52-.6299-.3467-1.1055-.8701-1.4277-1.5698-.3213-.6998-.5079-1.5914-.5577-2.6758l2.6856-.4541c.0254,.6308,.0908,1.1567,.1982,1.5791,.1075,.4228,.2715,.7378,.4922,.9458s.4942,.312,.8223,.312c.4033,0,.6777-.126,.8232-.3784,.14461-.252,.2168-.542,.2168-.8697,0-.643-.1543-1.1821-.4629-1.6172-.3095-.435-.7158-.873-1.2197-1.3144l-1.5889-1.3804c-.5673-.479-1.0302-1.0215-1.3896-1.6264-.3594-.605-.53909-1.3492-.53909-2.2315,0-1.2607,.36819-2.2285,1.10649-2.9033,.7373-.6743,1.749-1.0117,3.0351-1.0117,.7686,0,1.39941,.1264,1.8907,.3784,.4921,.2524,.873,.5893,1.1445,1.0117,.2705,.4224,.4599,.8828,.5674,1.3804,.1074,.4985,.17281,.9931,.1982,1.4848l-2.666,.397c-.02539-.4663-.06639-.876-.123-1.229-.0567-.353-.17-.6304-.3409-.8325-.1699-.2012-.4248-.3023-.7656-.3023-.3662,0-.6367,.1353-.8135,.4063-.1767,.2715-.2646,.5708-.2646,.8984,0,.5425,.123,.9869,.3691,1.3335,.24611,.3467,.583,.709,1.0117,1.0874l1.5508,1.3614c.64261,.5551,1.1944,1.1889,1.6543,1.9008,.46,.7124,.6904,1.5918,.6904,2.6382,0,.7188-.164,1.3682-.4912,1.9478-.3281,.5801-.7851,1.0342-1.3711,1.3618-.5869,.3276-1.2773,.4917-2.0712,.4917Z" style="fill:#263238;"></path><path d="M251.85119,92.8877c-1.16019,0-2.0615-.1987-2.7051-.5957-.6426-.397-1.0937-.9707-1.3516-1.7212-.2588-.75-.3877-1.6606-.3877-2.7324v-10.4771h3.0821v10.9121c0,.378,.0283,.75,.0859,1.1158,.0567,.3657,.1826,.6616,.3779,.8886,.1954,.2271,.4942,.3404,.8985,.3404,.416,0,.7217-.1133,.917-.3404,.1953-.227,.3183-.5229,.3691-.8886,.0498-.3658,.0752-.7378,.0752-1.1158v-10.9121h3.083v10.4771c0,1.0718-.1299,1.9824-.3877,2.7324-.25879,.7505-.7099,1.3242-1.3525,1.7212s-1.5449,.5957-2.7041,.5957Z" style="fill:#263238;"></path><path d="M258.46929,92.6797v-15.3184h3.97171c1.03419,0,1.91989,.1167,2.65719,.3496,.7374,.2334,1.3047,.6465,1.7022,1.2388,.3975,.5928,.5957,1.4121,.5957,2.4585,0,.6309-.0537,1.1885-.16109,1.6738-.10751,.4854-.29591,.9077-.56741,1.2671-.2705,.3594-.6524,.646-1.14359,.8604l2.11819,7.4702h-3.1963l-1.7588-6.9404h-1.0967v6.9404h-3.1211Zm3.1211-8.794h.9073c.5039,0,.90131-.082,1.1914-.2461,.29-.1635,.4951-.4125,.6152-.747,.1191-.3335,.17971-.7466,.17971-1.2383,0-.7061-.12991-1.2451-.38771-1.6172-.2588-.3716-.7412-.5581-1.44729-.5581h-1.05861v4.4067Z" style="fill:#263238;"></path><path d="M268.73889,92.6797l2.9687-15.3184h3.461l2.9502,15.3184h-2.8936l-.5478-3.3662h-2.4209l-.587,3.3662h-2.9306Zm3.8008-5.2764h1.8349l-.9267-6.1841-.9082,6.1841Z" style="fill:#263238;"></path><path d="M279.55629,92.6797v-15.3184h2.1748l3.4043,7.9805v-7.9805h2.5722v15.3184h-2.0801l-3.4043-8.4727v8.4727h-2.6669Z" style="fill:#263238;"></path><path d="M294.28869,92.8877c-1.1348,0-2.0332-.2144-2.6953-.6431-.6621-.4282-1.125-1.0239-1.3897-1.7871-.2656-.7627-.3974-1.6484-.3974-2.6572v-5.5034c0-1.0591,.1318-1.9698,.3974-2.7324,.2647-.7627,.7276-1.3526,1.3897-1.7686s1.5605-.624,2.6953-.624c1.0967,0,1.957,.1831,2.581,.5483,.6241,.3662,1.0655,.8828,1.32431,1.5508,.25779,.6685,.38759,1.4438,.38759,2.3262v1.2861h-3.0263v-1.437c0-.353-.0186-.6841-.0567-.9932-.038-.3086-.14159-.561-.3125-.7563-.1699-.1953-.4629-.293-.8789-.293s-.7187,.1006-.90819,.3023c-.18841,.2021-.30861,.4633-.35931,.7851-.0498,.3213-.0752,.6777-.0752,1.0684v6.9594c0,.4288,.0341,.8038,.10451,1.1255,.06829,.3213,.20109,.5674,.39639,.7373,.1953,.1704,.47561,.2554,.8418,.2554,.4034,0,.6905-.0976,.8604-.293,.1699-.1953,.2773-.457,.3213-.7851,.0439-.3277,.0664-.6743,.0664-1.0401v-1.4941h3.0263v1.2671c0,.8955-.1269,1.6865-.3789,2.3735-.2519,.6875-.6875,1.2295-1.3046,1.6265-.6182,.397-1.4874,.5957-2.6094,.5957Z" style="fill:#263238;"></path><path d="M300.49079,92.6797v-15.3184h6.6758v2.1558h-3.5547v4.0659h2.7422v2.1748h-2.7422v4.8037h3.5928v2.1182h-6.7139Z" style="fill:#263238;"></path></g></g><g id="freepik--Suitcase--inject-87"><g><g><path d="M386.26449,463.9108c-1.3478-1.9884-4.0524-2.5077-6.0408-1.1599-1.9883,1.3478-2.5075,4.0523-1.15969,6.0407,1.34779,1.9884,4.05219,2.5077,6.04059,1.1599,1.9883-1.3478,2.5077-4.0523,1.1599-6.0407Z" style="fill:#263238; stroke:#263238; stroke-linecap:round; stroke-linejoin:round;"></path><polygon points="379.68459 458.6915 382.041 467.8799 383.88119 467.7387 384.82619 458.5251 379.68459 458.6915" style="fill:#fff; stroke:#263238; stroke-linecap:round; stroke-linejoin:round;"></polygon></g><g><path d="M360.675,463.9108c-1.34781-1.9884-4.05241-2.5077-6.04071-1.1599-1.9884,1.3478-2.5076,4.0523-1.1598,6.0407s4.0522,2.5077,6.0406,1.1599,2.5077-4.0523,1.15991-6.0407Z" style="fill:#263238; stroke:#263238; stroke-linecap:round; stroke-linejoin:round;"></path><polygon points="354.09509 458.6915 356.45159 467.8799 358.29169 467.7387 359.23669 458.5251 354.09509 458.6915" style="fill:#fff; stroke:#263238; stroke-linecap:round; stroke-linejoin:round;"></polygon></g><line x1="386.83609" y1="356.756" x2="386.75919" y2="462.1927" style="fill:none; stroke:#263238; stroke-linecap:round; stroke-linejoin:round; stroke-width:2px;"></line><line x1="386.962" y1="338.659" x2="386.83609" y2="356.756" style="fill:none; stroke:#263238; stroke-linecap:round; stroke-linejoin:round; stroke-width:4px;"></line><g><rect x="351.68118" y="395.68398" width="31.59063" height="66.61508" rx="3.46505" ry="3.46505" transform="translate(4.37313 -3.70773) rotate(.58155)" style="fill:#263238; stroke:#263238; stroke-linecap:round; stroke-linejoin:round;"></rect><path d="M347.71989,458.824l7.09011,.1431,.52279-51.5038-8.6612-.159c-2.46959-.0251-4.4919,1.9565-4.517,4.4261l-.4161,40.9896c-.0339,3.3373,2.6441,6.0701,5.9814,6.104Z" style="fill:#263238; stroke:#263238; stroke-linecap:round; stroke-linejoin:round;"></path><path d="M350.92459,458.8565l7.0901,.1432,.5228-51.5038-8.6612-.1591c-2.4696-.0251-4.4919,1.9566-4.517,4.4262l-.4161,40.9895c-.0339,3.3374,2.6441,6.0701,5.9814,6.104Z" style="fill:#BCA560; stroke:#263238; stroke-linecap:round; stroke-linejoin:round;"></path><rect x="355.34368" y="395.72123" width="31.59063" height="66.61493" rx="3.46515" ry="3.46515" transform="translate(4.37369 -3.7449) rotate(.58155)" style="fill:#BCA560; stroke:#263238; stroke-linecap:round; stroke-linejoin:round;"></rect><path d="M368.08139,395.6884l-1.1171,24.7088c-.0389,.8608,.6273,1.5902,1.4881,1.629l3.813,.1727c.8607,.0389,1.5901-.6273,1.6291-1.4882l1.128-24.9518-6.9411-.0705Z" style="fill:#263238;"></path><path d="M361.90206,430.66831h17.18338c1.67311,0,3.03146,1.35835,3.03146,3.03146v18.21674c0,1.67312-1.35836,3.03148-3.03148,3.03148h-17.18338c-1.67316,0-3.03156-1.35839-3.03156-3.03156v-18.21655c0-1.67317,1.35841-3.03158,3.03158-3.03158Z" transform="translate(11.90248 -9.69265) rotate(1.52332)" style="fill:#263238; stroke:#263238; stroke-linecap:round; stroke-linejoin:round;"></path><path d="M363.90915,431.05371h17.18339c1.67311,0,3.03146,1.35835,3.03146,3.03146v18.21669c0,1.67312-1.35836,3.03148-3.03148,3.03148h-17.18337c-1.67316,0-3.03156-1.3584-3.03156-3.03156v-18.21651c0-1.67317,1.3584-3.03156,3.03156-3.03156Z" transform="translate(11.91607 -9.74797) rotate(1.52365)" style="fill:#BCA560; stroke:#263238; stroke-linecap:round; stroke-linejoin:round;"></path></g></g></g><g id="freepik--Character_2--inject-87"><g><g><path d="M293.33089,247.5991s-.9748,7.6762-.6093,8.7728,2.5587,5.4829,2.6806,5.8485c.12181,.3656-2.5588,2.6806-2.0713,3.7772,.4873,1.0965,3.1679,2.4369,3.1679,2.4369,0,0,6.5795,7.5543,7.4325,7.4325,.8529-.1219,4.0208-1.8277,4.0208-1.8277l1.8277,4.2646,18.1548-7.6762-5.483-9.0165s-5.7267-14.4995-11.0878-19.1296c-5.3612-4.6301-15.83979-.1218-18.0329,5.1175Z" style="fill:#fff; stroke:#263238; stroke-linecap:round; stroke-linejoin:round;"></path><polygon points="303.93129 275.867 308.53189 270.9204 307.95209 274.0393 303.93129 275.867" style="fill:#263238; stroke:#263238; stroke-linecap:round; stroke-linejoin:round;"></polygon><path d="M298.20459,267.9471s1.8277-.853,1.0966-3.168" style="fill:none; stroke:#263238; stroke-linecap:round; stroke-linejoin:round;"></path><path d="M293.94009,256.9811s0-1.584,1.8276-.8529" style="fill:none; stroke:#263238; stroke-linecap:round; stroke-linejoin:round;"></path><line x1="295.76769" y1="260.5146" x2="297.22979" y2="263.0733" style="fill:none; stroke:#263238; stroke-linecap:round; stroke-linejoin:round;"></line></g><path d="M316.48129,234.6836c-4.2646-2.6806-10.6005-2.0714-13.6466,0-2.8498,1.9379-7.7241,6.86-8.3408,7.4867,.0029-.0076,.0048-.0196,.0074-.0286-.0257,.0301-.047,.0683-.0739,.0963,0,0-1.7072,4.2447-1.0965,5.3611,1.2184-.1219,5.1173-2.5588,4.8738-1.0967-.2438,1.4622-1.82769,4.0209-.853,4.5083,.9748,.4874,3.3416,2.6566,3.3416,2.6566,0,0,.4355,2.339,1.89771,2.0954,1.46219-.2437,2.55869-2.5588,3.65529-1.0967,1.0966,1.4622,8.651,8.8947,9.1383,8.8947,.48741,0,7.067-1.9495,7.067-1.9495,0,0,.48741-7.5544,.8529-12.55,.36551-4.9956-2.5587-11.697-6.8232-14.3776Z" style="fill:#263238; stroke:#263238; stroke-linecap:round; stroke-linejoin:round;"></path><path d="M303.322,258.0777s-.97471-6.9452,1.46219-5.7267c2.4369,1.2184,4.3864,7.6762,3.7771,9.1383-.6092,1.4622-2.07129,.4874-2.07129,.4874" style="fill:#fff; stroke:#263238; stroke-linecap:round; stroke-linejoin:round;"></path><path d="M307.493,277.7478l-2.67161,7.5695s8.1632-4.4527,16.0294-7.1243c7.8664-2.6715,13.0611-3.4137,13.0611-3.4137l-4.0074-5.9368s-16.4747,1.6326-22.41149,8.9053Z" style="fill:#BCA560; stroke:#263238; stroke-linecap:round; stroke-linejoin:round;"></path><path d="M265.66659,295.4625l16.8282,28.2373c.1259,.2111,.3749,.3153,.6136,.2567l15.7957-3.8797c.3615-.0888,.537-.4995,.3511-.822l-14.596-25.3284c-.10519-.1825-.3041-.2904-.5145-.2791l-18.0279,.9708c-.4199,.0226-.6655,.4832-.4502,.8444Z" style="fill:#263238; stroke:#263238; stroke-linecap:round; stroke-linejoin:round;"></path><polygon points="267.52979 296.5819 282.67309 321.9917 297.303 318.3984 284.21309 295.6835 267.52979 296.5819" style="fill:#878787; stroke:#263238; stroke-linecap:round; stroke-linejoin:round;"></polygon><path d="M295.174,301.1983s-4.45261,2.3747-6.08521,3.1168c-1.6326,.7422-2.5232,1.3358-1.4843,2.2264,1.039,.8905,4.6011-1.1874,4.6011-1.1874l2.82-1.1874,.14841-2.9684Z" style="fill:#fff; stroke:#263238; stroke-linecap:round; stroke-linejoin:round;"></path><g><path d="M331.38019,460.8079l1.0066,7.7175s-1.0066,1.6777-4.1942,2.0132c-3.1877,.3356-5.5365,.8389-5.5365,.8389l.8756-7.5049,7.8485-3.0647Z" style="fill:#fff; stroke:#263238; stroke-linecap:round; stroke-linejoin:round;"></path><path d="M332.38679,468.5254l-.1457-1.118c-3.0019,1.1675-6.6336,1.543-9.3136,1.6435l-.2714,2.3266s2.34891-.5033,5.5365-.8389c3.1876-.3356,4.1942-2.0132,4.1942-2.0132Z" style="fill:#fff; stroke:#263238; stroke-linecap:round; stroke-linejoin:round;"></path></g><g><path d="M308.56329,457.6203l-8.7241,5.3686s-3.8587,1.0066-6.0397,1.1744-2.181,2.5166-1.1744,3.3555c1.0066,.8388,4.3436,2.2609,8.5563,3.1876,8.3885,1.8455,20.4681,1.1744,21.4747,.6711s1.8455-1.3421,2.0133-2.0132c.1677-.6711,0-7.2142,0-7.2142,0,0-12.7507-1.5099-16.1061-4.5298Z" style="fill:#fff; stroke:#263238; stroke-linecap:round; stroke-linejoin:round;"></path><path d="M300.007,468.5254c-4.91851-1.4931-6.93791-2.7096-7.74781-3.5306-.5108,.8073-.2858,1.9809,.3659,2.524,1.0066,.8388,4.3436,2.2608,8.5563,3.1877,8.3885,1.8454,20.4681,1.1743,21.4747,.671,.9416-.4708,1.7288-1.2335,1.965-1.8795-5.6102,.4795-17.5935,1.1586-24.61409-.9726Z" style="fill:#fff; stroke:#263238; stroke-linecap:round; stroke-linejoin:round;"></path></g><path d="M335.94059,351.2729s0,8.2727-2.75759,12.7154c-2.75751,4.4427-6.58741,8.4258-6.58741,9.0386s-3.6767,29.2605-3.6767,30.7926c0,1.5319-.1532,5.9746,.766,8.2725,.9192,2.298,4.4427,16.8517,6.5874,29.8734,2.1448,13.0218,1.2256,16.2389,1.2256,16.2389,0,0,.9192,2.2979,.9192,2.9107s-.4596,2.2979-.4596,2.2979c0,0-2.4512,.766-4.7491,.766s-3.6767-.3063-3.6767-.3063c0,0-.1532-2.4512,.3064-3.6768,.4595-1.2256,.1531-4.5959,.1531-5.3618,0-.766-5.8214-40.444-5.8214-43.508,0-3.0638-.1532-35.5416-.1532-35.5416l-1.3788-22.5199s7.9663-.3064,19.3028-1.9916Z" style="fill:#BCA560; stroke:#263238; stroke-linecap:round; stroke-linejoin:round;"></path><g><path d="M325.06359,368.5842s-3.6767,6.7406-3.9831,7.3534-.3064,5.9747-.3064,7.2003c0,1.2255-.766,24.5114-.6127,27.7286,.1532,3.2171,2.6043,13.1749,3.3703,19.1495,.7659,5.9748,2.1447,23.4391,2.2979,23.8988,.1532,.4595,.766,2.6043,.4596,3.9831s-1.0724,2.9107-1.0724,2.9107c0,0,.4596,2.6043,.15321,3.3703-.30641,.766-4.44271,1.532-10.26421-.1532-5.8214-1.6851-8.2725-5.3619-8.2725-5.3619,0,0,.3063-.7659,.3063-2.2979,0-1.5319,1.5319-1.8384,1.5319-1.8384l-2.9106-20.5283s-2.7576-6.4343-2.9108-7.5067,.6128-3.6767,.4596-4.749c-.1532-1.0724-1.9915-3.3704-2.1448-4.4427-.1532-1.0724-5.2086-18.2305-5.515-33.3969-.3065-15.1665,.2662-29.274,.2662-29.274,0,0,3.87,2.0049,15.8194,1.2389,11.9494-.7659,16.6984-.9191,22.3667-3.3703" style="fill:#BCA560; stroke:#263238; stroke-linecap:round; stroke-linejoin:round;"></path><g><path d="M312.44829,445.0638l.9804,10.2076s-1.3421,.8389-.8389,2.5166c.5034,1.6777,.8389,2.6843,.8389,2.6843" style="fill:none; stroke:#263238; stroke-linecap:round; stroke-linejoin:round;"></path><path d="M303.65639,393.8901c.1158,.7414,.2413,1.4622,.3771,2.1581,2.6843,13.7572,5.7042,24.159,5.872,24.6624,.1678,.5033-2.0132,2.3487-1.1744,3.3554,.8388,1.0066,1.8455,1.51,1.8455,1.51l1.5417,16.0522" style="fill:none; stroke:#263238; stroke-linecap:round; stroke-linejoin:round;"></path><path d="M302.69139,358.8029s-.9758,17.0753,.4005,30.6353" style="fill:none; stroke:#263238; stroke-linecap:round; stroke-linejoin:round;"></path><path d="M298.83259,358.4674s-.5033,6.0398,2.8521,9.0596" style="fill:none; stroke:#263238; stroke-linecap:round; stroke-linejoin:round;"></path><path d="M324.50159,359.3063c-3.8588,1.6776-12.2473,1.8455-12.2473,1.8455l1.0066,2.5165s5.872-.3355,8.2209-1.1743" style="fill:none; stroke:#263238; stroke-linecap:round; stroke-linejoin:round;"></path></g></g><g><g><path d="M295.91609,354.6299s2.07791,3.8589,18.2558,2.9684c16.178-.8905,22.4116-3.5621,22.56011-4.8978,.14829-1.3358-.29691-4.4528-.29691-4.4528,0,0-30.5747,2.2264-40.519,6.3822Z" style="fill:#c2c2c2; stroke:#263238; stroke-linecap:round; stroke-linejoin:round;"></path><path d="M304.82139,285.3173s-9.0537,4.1557-9.2021,5.4915-4.8979,37.2537-4.8979,37.2537l-7.1242-8.3116s.1484-2.9684-.2969-4.1558c-.4452-1.1873-.5936-2.0778-1.6326-2.5231s-4.4526-1.3358-5.3431-2.0779c-.89059-.7421-3.4138-3.1168-4.0074-2.2263-.5937,.8905-1.7811,2.3747-1.48419,3.4137,.29679,1.0389,1.48419,3.1168,1.48419,3.7105s0,5.0463,1.9294,7.1242c1.9295,2.0779,4.7495,2.9684,4.7495,2.9684,0,0,4.6011,12.1705,6.2337,14.5453,1.6326,2.3747,8.46,7.8663,8.46,7.8663,0,0-1.6326,3.8589-1.1873,4.1558,.4452,.2968,2.5231,3.4136,3.1168,3.4136s18.4042-2.9683,19.74-3.1168c1.3358-.1483,14.69371,0,15.7326-.4452,1.039-.4453,4.4526-1.9295,5.1947-2.5232,.7422-.5937,1.9295-1.6327,1.3358-4.0074-.5936-2.3747-1.1873-19.1463-1.1873-20.6305s3.6643-13.0624,4.3042-17.8105c2.3053-17.1067,2.0532-18.1113,2.1031-20.3419,.1178-5.2656-4.057-7.9935-4.6507-8.2903-.59369-.2969-4.2798-4.0205-4.2798-4.0205,0,0-13.2094,1.039-29.0905,10.538Z" style="fill:#c2c2c2; stroke:#263238; stroke-linecap:round; stroke-linejoin:round;"></path><path d="M293.68979,348.3962s5.1948-.8905,6.0853-1.6326,8.7568-23.7474,9.0536-25.0832c.2969-1.3358,.7422-17.5137,.7422-17.5137" style="fill:none; stroke:#263238; stroke-linecap:round; stroke-linejoin:round;"></path><line x1="309.42239" y1="314.2594" x2="311.94559" y2="305.2057" style="fill:none; stroke:#263238; stroke-linecap:round; stroke-linejoin:round;"></line><path d="M290.12769,336.9678c-.4453-2.5232,.5937-8.9053,.5937-8.9053,0,0,1.039,6.2337,2.9684,8.7568" style="fill:none; stroke:#263238; stroke-linecap:round; stroke-linejoin:round;"></path><path d="M283.59709,319.7509s.1485-2.9684-.2968-4.1558c-.4452-1.1873-.5936-2.0778-1.6326-2.5231s-4.4526-1.3358-5.3431-2.078c-.89059-.742-3.4138-3.1168-4.0074-2.2262-.5937,.8904-1.7811,2.3747-1.48419,3.4137,.29679,1.0389,1.48419,3.1168,1.48419,3.7105s0,5.0463,1.9294,7.1242c1.9295,2.0779,4.7495,2.9684,4.7495,2.9684,0,0,.2578,.6815,.67,1.7463,.9042-2.1851,2.7396-4.8717,6.3255-5.1864l-2.3945-2.7936Z" style="fill:#fff; stroke:#263238; stroke-linecap:round; stroke-linejoin:round;"></path><path d="M281.22239,330.5857s1.039-3.7105,5.3432-5.1948" style="fill:none; stroke:#263238; stroke-linecap:round; stroke-linejoin:round;"></path><line x1="315.35929" y1="352.8488" x2="330.34989" y2="348.3962" style="fill:none; stroke:#263238; stroke-linecap:round; stroke-linejoin:round;"></line></g><path d="M333.16649,313.4736s-9.4882,10.2575-17.1814,15.8992" style="fill:none; stroke:#263238; stroke-linecap:round; stroke-linejoin:round;"></path><path d="M328.29419,321.1667s-7.1803,7.1803-10.2576,9.4883" style="fill:none; stroke:#263238; stroke-linecap:round; stroke-linejoin:round;"></path></g><g><path d="M333.91189,274.7793s7.0215,9.1789,7.35011,11.9713c.32849,2.7924,.657,4.435,.657,4.435l4.10649-2.9567s-1.9711-7.0631-4.2708-9.3628-7.8428-4.0868-7.8428-4.0868Z" style="fill:#263238; stroke:#263238; stroke-linecap:round; stroke-linejoin:round;"></path><path d="M345.53739,285.0282s-5.8597-.293-9.6685,2.6369c-3.8088,2.9298-5.5667,12.5983-6.4456,17.872-.879,5.2737-1.7579,29.0054-1.7579,32.8142s3.5158,5.5667,4.9807,6.1527c1.46491,.5859,9.9615-1.465,11.1334-1.7579,1.1719-.293,9.66851-.293,12.0124-5.5667,2.3438-5.2738,2.6368-14.6492,2.3438-18.1651-.293-3.5158-2.9298-8.7895-2.9298-8.7895,0,0,.586-13.7702-.586-18.458-1.17189-4.6877-6.4456-7.3246-9.0825-6.7386Z" style="fill:#263238; stroke:#263238; stroke-linecap:round; stroke-linejoin:round;"></path><path d="M355.20589,310.2248s-21.3442,4.7227-20.8445,6.7212c.49961,1.9985-.2499,6.2453,0,6.9948,.2498,.7494,23.7743-4.9265,23.7743-4.9265,0,0-.5714-7.7665-2.9298-8.7895Z" style="fill:#878787; stroke:#878787; stroke-linecap:round; stroke-linejoin:round;"></path><path d="M352.09809,288.2175s-10.742,.7495-14.2394,3.997c-3.4973,3.2476-4.301,15.2137-4.4966,18.2364" style="fill:none; stroke:#878787; stroke-linecap:round; stroke-linejoin:round;"></path><path d="M334.36139,327.688s-.7495,10.7419,0,13.24c.7494,2.4982,12.544,1.2506,16.9872-1.249" style="fill:none; stroke:#878787; stroke-linecap:round; stroke-linejoin:round;"></path></g></g></g><g id="freepik--Airplane--inject-87"><g><polygon points="338.738 132.9981 327.88169 152.5393 332.46549 152.298 347.90539 135.6518 343.80419 131.7918 338.738 132.9981" style="fill:#263238; stroke:#263238; stroke-linecap:round; stroke-linejoin:round;"></polygon><path d="M484.21139,100.9119l-10.9753-.7569c-1.9998-.1379-4.0089,.0301-5.958,.4982l-113.5827,27.2786-23.1599-8.2025-6.27249,1.93,20.02369,15.44,27.7437-1.4475,103.92761-23.3494c3.70039-.8313,7.21249-2.3478,10.355-4.4711l2.77219-1.8731c.8451-.5711,1.2587-1.5983,1.0449-2.5956h0c-.2218-1.0352-1.0715-1.8185-2.1213-1.9554l-3.7974-.4953Z" style="fill:#fff; stroke:#263238; stroke-linecap:round; stroke-linejoin:round;"></path><path d="M366.73379,135.9281c5.0611-4.588,12.2689-10.8068,19.2791-15.7579l-32.3175,7.7616-23.1599-8.2025-6.27249,1.93,20.02369,15.44,22.4471-1.1712Z" style="fill:#BCA560; stroke:#263238; stroke-linecap:round; stroke-linejoin:round;"></path><polygon points="338.738 132.9981 333.67169 114.4219 338.25549 114.4219 349.83539 132.2743 338.738 132.9981" style="fill:#263238; stroke:#263238; stroke-linecap:round; stroke-linejoin:round;"></polygon><polygon points="338.738 132.9981 334.25019 133.4247 334.59279 136.0801 344.28669 137.0993 338.738 132.9981" style="fill:#fff; stroke:#263238; stroke-linecap:round; stroke-linejoin:round;"></polygon><polygon points="407.13189 120.2684 405.79039 108.0275 392.208 65.6034 400.75989 68.7894 433.79369 115.0702 407.13189 120.2684" style="fill:#263238; stroke:#263238; stroke-linecap:round; stroke-linejoin:round;"></polygon><g><path d="M416.54719,92.3389c-1.2388-.9538-1.6174-4.3436-.6195-5.5471,1.4514-1.7506,8.3631-2.3782,10.3525-1.1562,1.3677,.8401,1.7682,4.426,.6195,5.5471-1.6708,1.6307-8.5506,2.5434-10.3525,1.1562Z" style="fill:#fff; stroke:#263238; stroke-linecap:round; stroke-linejoin:round;"></path><path d="M415.37819,87.4172l-5.2611,1.4487,.7625,3.0499h4.9561s-.6863-2.1349-.4575-4.4986Z" style="fill:#fff; stroke:#263238; stroke-linecap:round; stroke-linejoin:round;"></path></g><g><path d="M428.89919,107.4358c-1.2388-.9537-1.6173-4.3435-.6195-5.5471,1.4515-1.7506,8.3632-2.3781,10.3526-1.1561,1.36771,.84,1.7682,4.426,.6195,5.5471-1.67079,1.6307-8.5507,2.5434-10.3526,1.1561Z" style="fill:#fff; stroke:#263238; stroke-linecap:round; stroke-linejoin:round;"></path><path d="M427.73019,102.5142l-5.261,1.4487,.7625,3.0499h4.956s-.6862-2.135-.4575-4.4986Z" style="fill:#fff; stroke:#263238; stroke-linecap:round; stroke-linejoin:round;"></path></g><polygon points="393.68019 131.0937 405.20789 132.5529 375.29439 170.346 371.64639 170.7838 379.672 171.6593 431.18149 124.5273 437.01829 121.1712 393.68019 131.0937" style="fill:#263238; stroke:#263238; stroke-linecap:round; stroke-linejoin:round;"></polygon><g><path d="M420.677,139.8093c-1.23881-.9538-1.61741-4.3436-.61951-5.5472,1.4514-1.7506,8.3631-2.3781,10.35251-1.1561,1.36769,.84,1.76819,4.426,.61949,5.5471-1.6708,1.6307-8.5506,2.5434-10.35249,1.1562Z" style="fill:#fff; stroke:#263238; stroke-linecap:round; stroke-linejoin:round;"></path><path d="M419.508,134.8876l-5.26111,1.4487,.7625,3.0499h4.9561s-.6863-2.1349-.45749-4.4986Z" style="fill:#fff; stroke:#263238; stroke-linecap:round; stroke-linejoin:round;"></path></g><g><path d="M399.81049,157.4655c-1.2388-.9537-1.6174-4.3436-.61949-5.5471,1.45139-1.7506,8.36319-2.3781,10.35249-1.1562,1.3677,.8401,1.7682,4.426,.61951,5.5471-1.67081,1.6307-8.55061,2.5435-10.35251,1.1562Z" style="fill:#fff; stroke:#263238; stroke-linecap:round; stroke-linejoin:round;"></path><path d="M398.64149,152.5438l-5.2611,1.4487,.7625,3.0499h4.95611s-.68621-2.1349-.45751-4.4986Z" style="fill:#fff; stroke:#263238; stroke-linecap:round; stroke-linejoin:round;"></path></g></g><path d="M327.80629,136.4881s-192.05429,31.8485-285.75629,83.6686c-93.702,51.82,70.9864,18.4564,70.9864,18.4564" style="fill:none; stroke:#263238; stroke-dasharray:0 0 3 3; stroke-linecap:round; stroke-linejoin:round;"></path></g></svg>
